<?xml version="1.0" standalone="no"?>
<!DOCTYPE svg PUBLIC "-//W3C//DTD SVG 20010904//EN"
 "http://www.w3.org/TR/2001/REC-SVG-20010904/DTD/svg10.dtd">
<svg version="1.0" xmlns="http://www.w3.org/2000/svg"
 width="64.000000pt" height="64.000000pt" viewBox="0 0 64.000000 64.000000"
 preserveAspectRatio="xMidYMid meet">

<g transform="translate(0.000000,64.000000) scale(0.100000,-0.100000)"
fill="#000000" stroke="none">
<path d="M143 577 c-12 -12 -31 -30 -43 -39 -28 -25 -29 -98 0 -98 24 0 25 -6
44 -183 18 -180 15 -177 156 -177 140 0 136 -4 156 176 19 180 20 184 44 184
29 0 28 73 0 98 -11 9 -31 27 -44 40 -22 21 -32 22 -157 22 -125 0 -135 -2
-156 -23z m281 -32 c3 -8 17 -20 31 -25 14 -5 25 -16 25 -25 0 -13 -25 -15
-180 -15 -155 0 -180 2 -180 15 0 9 11 20 25 25 14 5 28 17 31 25 9 22 239 22
248 0z m12 -121 c-3 -9 -6 -27 -6 -40 0 -20 -5 -24 -31 -24 -17 0 -42 9 -56
20 -14 11 -33 20 -43 20 -10 0 -29 -9 -43 -20 -14 -11 -39 -20 -56 -20 -26 0
-31 4 -31 24 0 13 -3 31 -6 40 -5 14 10 16 136 16 126 0 141 -2 136 -16z
m-109 -84 c12 -13 30 -20 55 -20 31 0 38 -4 38 -20 0 -16 -7 -20 -38 -20 -25
0 -43 -7 -55 -20 -9 -11 -21 -20 -27 -20 -6 0 -18 9 -27 20 -12 13 -30 20 -55
20 -31 0 -38 4 -38 20 0 16 7 20 38 20 25 0 43 7 55 20 9 11 21 20 27 20 6 0
18 -9 27 -20z m-70 -120 c14 -11 33 -20 43 -20 10 0 29 9 43 20 14 11 35 20
46 20 18 0 21 -6 21 -37 0 -83 -1 -83 -110 -83 -109 0 -110 0 -110 83 0 31 3
37 21 37 11 0 32 -9 46 -20z"/>
</g>
</svg>
