<svg fill="#000000" xmlns="http://www.w3.org/2000/svg"  viewBox="0 0 50 50" width="100px" height="100px"><path d="M 18 1 A 1.0001 1.0001 0 0 0 17.292969 1.2929688 L 12.802734 5.7832031 L 12.027344 5.3945312 A 1.0001 1.0001 0 0 0 12.025391 5.3945312 C 10.103815 4.4337202 7.7746048 4.8113327 6.2558594 6.3300781 A 1.0001 1.0001 0 0 0 6.1601562 6.4394531 L 3.1992188 10.400391 A 1.0001 1.0001 0 0 0 3.1679688 11.554688 L 4.8457031 14.072266 L 3.1054688 17.552734 A 1.0001 1.0001 0 0 0 3.0507812 18.3125 L 8.8164062 35.787109 A 1.0001 1.0001 0 0 0 8.8222656 35.804688 C 9.6977715 38.305819 11.446158 40.406297 13.746094 41.720703 L 24.503906 47.869141 A 1.0001 1.0001 0 0 0 25.496094 47.869141 L 36.253906 41.720703 C 38.555026 40.406249 40.302315 38.305571 41.177734 35.804688 A 1.0001 1.0001 0 0 0 41.183594 35.787109 L 46.949219 18.3125 A 1.0001 1.0001 0 0 0 46.894531 17.552734 L 45.154297 14.072266 L 46.832031 11.554688 A 1.0001 1.0001 0 0 0 46.800781 10.400391 L 43.839844 6.4394531 A 1.0001 1.0001 0 0 0 43.746094 6.3320312 C 42.227348 4.813286 39.896232 4.4356732 37.974609 5.3964844 L 37.974609 5.3945312 L 37.197266 5.7832031 L 32.707031 1.2929688 A 1.0001 1.0001 0 0 0 32 1 L 18 1 z M 18.414062 3 L 31.585938 3 L 36.292969 7.7070312 A 1.0001 1.0001 0 0 0 37.447266 7.8945312 L 38.869141 7.1855469 A 1.0001 1.0001 0 0 0 38.869141 7.1835938 C 40.019834 6.6082439 41.39515 6.8342859 42.310547 7.734375 L 44.775391 11.033203 L 43.167969 13.445312 A 1.0001 1.0001 0 0 0 43.105469 14.447266 L 44.921875 18.078125 L 39.289062 35.148438 C 38.571999 37.193709 37.143316 38.909562 35.261719 39.984375 L 25 45.847656 L 14.738281 39.984375 C 12.8575 38.909514 11.427915 37.193464 10.710938 35.148438 C 10.710448 35.147038 10.709484 35.145931 10.708984 35.144531 L 5.078125 18.078125 L 6.8945312 14.447266 A 1.0001 1.0001 0 0 0 6.8320312 13.445312 L 5.2246094 11.033203 L 7.6914062 7.7324219 C 8.606803 6.8323542 9.9801772 6.6082525 11.130859 7.1835938 L 12.552734 7.8945312 A 1.0001 1.0001 0 0 0 13.707031 7.7070312 L 18.414062 3 z M 25 7.9726562 C 23.779708 7.9726562 22.558589 8.2987136 21.474609 8.9492188 C 20.407735 9.5893434 19.140757 9.807953 17.919922 9.5644531 L 17.921875 9.5664062 L 15.197266 9.0195312 A 1.0001 1.0001 0 0 0 14.142578 9.4863281 L 10.417969 15.699219 L 10.462891 15.630859 C 9.4517851 17.046407 9.4746706 18.965996 10.517578 20.357422 L 14.775391 26.035156 L 14.599609 26.298828 C 13.509648 27.934406 13.567655 30.090631 14.748047 31.664062 A 1.0001 1.0001 0 0 0 15.060547 31.935547 C 15.637533 32.604417 16.3213 33.138127 17.042969 33.498047 L 24.349609 39.759766 A 1.0001 1.0001 0 0 0 25.650391 39.759766 L 32.955078 33.498047 C 33.673893 33.139051 34.355832 32.606989 34.931641 31.941406 A 1.0001 1.0001 0 0 0 35.251953 31.662109 C 36.430877 30.088939 36.490551 27.934704 35.400391 26.298828 L 35.224609 26.033203 L 39.482422 20.357422 C 40.52688 18.965698 40.54797 17.046069 39.537109 15.630859 L 39.580078 15.699219 L 35.857422 9.4863281 A 1.0001 1.0001 0 0 0 34.804688 9.0195312 L 32.078125 9.5644531 C 30.858069 9.808631 29.592594 9.5895405 28.525391 8.9492188 A 1.0001 1.0001 0 0 0 28.271484 8.8398438 C 27.249904 8.2822939 26.129745 7.9726562 25 7.9726562 z M 25 9.9707031 C 25.863208 9.9707031 26.727074 10.202568 27.496094 10.664062 A 1.0001 1.0001 0 0 0 27.835938 10.791016 C 29.258575 11.545962 30.88344 11.84306 32.470703 11.525391 L 34.503906 11.119141 L 37.865234 16.726562 A 1.0001 1.0001 0 0 0 37.910156 16.794922 C 38.419292 17.507712 38.40835 18.455974 37.882812 19.15625 L 33.199219 25.400391 A 1.0001 1.0001 0 0 0 33.167969 26.554688 L 33.736328 27.408203 C 34.360168 28.344327 34.327416 29.562061 33.652344 30.462891 C 32.990422 31.345947 31.491333 32 31 32 C 31.1005 32 30.86574 31.96735 30.539062 31.777344 C 30.212387 31.587333 29.775805 31.283008 29.275391 30.910156 C 28.387179 30.248362 27.25046 29.364477 26 28.492188 L 26 27.566406 L 30.515625 24.857422 C 30.892625 24.630422 31.078703 24.184813 30.970703 23.757812 L 29.527344 17.986328 C 29.702344 17.710328 29.968328 17.469906 30.361328 17.253906 L 35 15 L 33 14 L 31 14 L 30.986328 14.013672 C 30.886328 14.015672 30.783594 14.017781 30.683594 14.050781 L 27.683594 15.050781 C 27.188594 15.216781 26.90425 15.736188 27.03125 16.242188 L 28.851562 23.523438 L 25 25.833984 L 21.150391 23.523438 L 22.970703 16.242188 C 23.096703 15.735188 22.812406 15.217734 22.316406 15.052734 L 19.316406 14.052734 C 19.215406 14.018734 19.114672 14.016625 19.013672 14.015625 L 19 14 L 17 14 L 15 15 L 19.638672 17.253906 C 20.031672 17.468906 20.297656 17.709375 20.472656 17.984375 L 19.029297 23.757812 C 18.923297 24.184812 19.108328 24.631422 19.486328 24.857422 L 24 27.566406 L 24 28.488281 C 22.676342 29.400101 21.521089 30.296195 20.650391 30.949219 C 20.161057 31.316219 19.742953 31.612509 19.433594 31.792969 C 19.124233 31.973381 18.916667 32 19 32 C 18.508667 32 17.009507 31.347061 16.347656 30.464844 C 15.672048 29.564275 15.639629 28.344626 16.263672 27.408203 L 16.832031 26.554688 A 1.0001 1.0001 0 0 0 16.800781 25.400391 L 12.117188 19.158203 L 12.117188 19.15625 C 11.593244 18.455827 11.581323 17.506846 12.089844 16.794922 A 1.0001 1.0001 0 0 0 12.132812 16.726562 L 15.494141 11.119141 L 17.529297 11.527344 C 19.236462 11.867844 21.010781 11.559935 22.503906 10.664062 C 23.272916 10.202615 24.136792 9.9707031 25 9.9707031 z M 24.998047 30.240234 C 26.116265 31.03049 27.193798 31.853317 28.080078 32.513672 C 28.603539 32.903695 29.080036 33.242276 29.533203 33.505859 C 29.604484 33.54732 29.675909 33.576177 29.746094 33.615234 L 25 37.683594 L 20.253906 33.615234 C 20.315544 33.580912 20.379376 33.555716 20.441406 33.519531 C 20.882047 33.262491 21.338943 32.933781 21.849609 32.550781 C 22.717534 31.899838 23.81815 31.063834 24.998047 30.240234 z"/></svg>