<svg fill="#000000" xmlns="http://www.w3.org/2000/svg"  viewBox="0 0 16 16" width="64px" height="64px"><path d="M 4.2402344 2 L 2 12 L 4.7050781 12 L 4.2480469 14 L 7.890625 14 L 8.640625 11 L 9.875 11 C 10.797619 11 11.644852 10.873065 12.355469 10.505859 C 13.066085 10.138654 13.618567 9.5024313 13.857422 8.6328125 L 13.861328 8.6152344 L 13.865234 8.5976562 C 14.066982 7.5889175 14.021425 6.7036801 13.597656 6.0175781 C 13.268815 5.4851688 12.718495 5.1396833 12.033203 4.9765625 C 12.086969 4.082264 11.830078 3.3359051 11.34375 2.8378906 C 10.769555 2.2498976 9.9661916 2 9.1894531 2 L 4.2402344 2 z M 5.0410156 3 L 9.1894531 3 C 9.7477147 3 10.287601 3.1876024 10.628906 3.5371094 C 10.968346 3.8847065 11.167927 4.4001196 11.007812 5.2714844 C 10.841094 5.9824889 10.566724 6.3650701 10.144531 6.6191406 C 9.7193359 6.8750184 9.0855879 7 8.21875 7 L 5.8554688 7 L 5.7617188 7.3886719 L 5.7402344 7.484375 L 4.9003906 11 L 3.25 11 L 5.0410156 3 z M 6.5625 4 L 6 6 L 8.5625 6 C 9.1835 6 9.9375 5.625 9.9375 5 C 9.9375 4.379 9.4335 4 8.8125 4 L 6.5625 4 z M 11.841797 5.9472656 C 12.297714 6.0551079 12.570404 6.2604709 12.746094 6.5449219 C 12.975639 6.9165673 13.047604 7.5298388 12.882812 8.3789062 C 12.708476 8.9982357 12.390612 9.3638037 11.896484 9.6191406 C 11.397599 9.876935 10.702381 10 9.875 10 L 7.859375 10 L 7.109375 13 L 5.5039062 13 L 6.6484375 8 L 8.21875 8 C 9.1769121 8 9.9948521 7.8749816 10.660156 7.4746094 C 11.205265 7.1465698 11.599552 6.6206552 11.841797 5.9472656 z"/></svg>