<?xml version="1.0" standalone="no"?>
<!DOCTYPE svg PUBLIC "-//W3C//DTD SVG 20010904//EN"
 "http://www.w3.org/TR/2001/REC-SVG-20010904/DTD/svg10.dtd">
<svg version="1.0" xmlns="http://www.w3.org/2000/svg"
 width="64.000000pt" height="64.000000pt" viewBox="0 0 64.000000 64.000000"
 preserveAspectRatio="xMidYMid meet">

<g transform="translate(0.000000,64.000000) scale(0.100000,-0.100000)"
fill="#000000" stroke="none">
<path d="M87 553 c-4 -3 -7 -90 -7 -193 0 -185 0 -187 25 -210 13 -12 23 -32
22 -44 -1 -16 4 -21 20 -21 12 0 33 -11 47 -25 l27 -24 191 192 192 191 -24
27 c-14 14 -25 35 -25 47 0 16 -5 21 -21 20 -12 -1 -32 9 -44 22 -23 25 -25
25 -210 25 -103 0 -190 -3 -193 -7z m323 -36 c0 -1 -65 -67 -145 -147 l-145
-145 0 148 0 147 145 0 c80 0 145 -1 145 -3z m71 -23 c11 -13 -10 -38 -154
-182 -158 -158 -168 -166 -184 -149 -17 16 -9 25 147 182 91 91 168 165 171
165 4 0 12 -7 20 -16z m60 -60 c11 -13 -10 -38 -154 -182 -158 -158 -168 -166
-184 -149 -17 16 -9 25 147 182 91 91 168 165 171 165 4 0 12 -7 20 -16z"/>
<path d="M164 469 c-10 -17 13 -36 27 -22 12 12 4 33 -11 33 -5 0 -12 -5 -16
-11z"/>
<path d="M244 469 c-10 -17 13 -36 27 -22 12 12 4 33 -11 33 -5 0 -12 -5 -16
-11z"/>
<path d="M164 389 c-10 -17 13 -36 27 -22 12 12 4 33 -11 33 -5 0 -12 -5 -16
-11z"/>
</g>
</svg>
